<svg xmlns="http://www.w3.org/2000/svg" width="96" height="18" viewBox="0 0 96 18" fill="none">
  <path d="M16.9634 11.1094L16.6031 12.7415C15.9791 15.5494 13.7732 17.55 10.5917 17.55H6.40832C3.22684 17.55 1.0209 15.5494 0.396906 12.7415L0.0365728 11.1094C-0.1392 10.3109 0.335386 9.40712 1.1 9.10001L2.34798 8.59985L7.19048 6.66064C7.61233 6.49392 8.06055 6.40617 8.49998 6.40617C8.93941 6.40617 9.38763 6.49392 9.80949 6.66064L14.652 8.59985L15.9 9.10001C16.6646 9.40712 17.1392 10.3109 16.9634 11.1094Z" fill="#168074"/>
  <path d="M14.6523 5.26478V6.52833C14.6523 6.83544 14.3359 7.05481 14.0459 6.93196L10.2932 5.4315C9.14187 4.98399 7.85873 4.98399 6.69864 5.44027L2.95468 6.94074C2.66466 7.06358 2.34827 6.84422 2.34827 6.5371V5.26478C2.34827 3.81696 3.53473 2.63239 4.98485 2.63239H12.0158C13.4659 2.63239 14.6523 3.81696 14.6523 5.26478Z" fill="#168074"/>
  <path d="M10.6974 2.63239H6.3031V0.877465C6.3031 0.394859 6.69859 0 7.18196 0H9.81855C10.3019 0 10.6974 0.394859 10.6974 0.877465V2.63239Z" fill="#168074"/>
  <path d="M44.647 0.54891C44.422 0.602737 44.0802 0.729967 43.8899 0.832727C43.6995 0.93549 40.7186 2.55031 37.2661 4.42449L30.9927 7.8352L28.9766 7.10118C27.869 6.69503 26.9302 6.36717 26.8912 6.36717C26.8047 6.36717 26 6.81737 26 6.8663C26 6.98374 27.882 9.28364 28.5742 10.0079C29.578 11.06 29.6602 11.1138 30.3005 11.1138C31.3951 11.1138 33.5367 10.5755 35.237 9.87085C35.9076 9.59682 36.1888 9.4647 36.9156 9.06833C37.2401 8.89217 37.517 8.76005 37.5257 8.76984C37.5343 8.77962 37.3613 10.7468 37.1363 13.1445C36.9156 15.5423 36.7339 17.6073 36.7296 17.7346C36.7296 17.9009 36.7469 17.9743 36.7988 17.9988C36.8897 18.038 38.5986 17.1033 38.7457 16.932C38.8323 16.8293 39.226 15.6255 40.4979 11.5297C41.3978 8.63282 42.142 6.24973 42.1506 6.23994C42.1593 6.23016 43.0419 5.74571 44.1062 5.16339C46.9443 3.62197 46.8492 3.68069 47.3164 3.16199C47.8183 2.60414 48 2.21756 48 1.71354C48 1.43951 47.9827 1.36611 47.8789 1.21441C47.6625 0.896341 47.1823 0.646778 46.529 0.514656C46.0271 0.416788 45.1489 0.431469 44.647 0.54891Z" fill="#168074"/>
  <path d="M32.4032 1.12634C31.9619 1.33186 30.7765 2.00226 30.7245 2.07076C30.6813 2.13438 30.6856 2.16374 30.7462 2.24203C30.7894 2.29586 31.5639 2.87818 32.4681 3.529C33.3723 4.18472 34.1554 4.75235 34.2117 4.7915C34.3025 4.86001 34.4107 4.81107 36.0158 3.94005C36.9503 3.43113 37.7031 3.00051 37.6901 2.98094C37.6295 2.91732 32.9397 1.0774 32.7709 1.05783C32.6585 1.04315 32.5287 1.06762 32.4032 1.12634Z" fill="#168074"/>
  <path d="M57 12.7237C57 14.391 58.4 15.795 60.0625 15.795L58.75 17.1112V17.55H69.25V17.1112L67.9375 15.795C69.6 15.795 71 14.391 71 12.7237V3.51C71 0.43875 67.85 0 64 0C60.15 0 57 0.43875 57 3.51V12.7237ZM64 14.04C63.0375 14.04 62.25 13.2502 62.25 12.285C62.25 11.3197 63.0375 10.53 64 10.53C64.9625 10.53 65.75 11.3197 65.75 12.285C65.75 13.2502 64.9625 14.04 64 14.04ZM69.25 7.8975H58.75V3.51H69.25V7.8975Z" fill="#168074"/>
  <path d="M87.6406 0C84.9784 0.000195913 82.7329 0.146896 82.3981 0.342534C81.8117 0.542052 81.3721 1.87175 81.3714 3.44807V4.23172H81.2114C81.1944 4.19489 81.1727 4.16174 81.1472 4.13361C81.2149 4.05936 81.2537 3.95239 81.2538 3.83989V3.44807C81.2538 3.23166 81.1135 3.05628 80.9404 3.05624H80.3135C80.1404 3.05628 80 3.23166 80 3.44807V3.83989C80.0001 3.9525 80.0389 4.05959 80.1066 4.13392C80.039 4.20817 80.0002 4.31514 80 4.42763V6.38676C80 6.60317 80.1404 6.77855 80.3135 6.77859H80.9404C81.0522 6.77839 81.1555 6.70375 81.2114 6.58267H81.3714V10.1091C81.3717 10.2489 81.521 10.3781 81.7632 10.448V10.9055C81.4175 10.9502 81.1758 11.106 81.1755 11.2846V15.2028C81.1758 15.7622 81.3251 16.2788 81.5673 16.5585V17.2318C81.5673 17.4096 81.7115 17.5538 81.8893 17.5538H83.2044C83.3822 17.5538 83.5264 17.4096 83.5264 17.2318V16.7701H91.7548V17.2318C91.7548 17.4096 91.899 17.5538 92.0768 17.5538H93.3919C93.5697 17.5538 93.7139 17.4096 93.7139 17.2318V16.5579C93.956 16.2784 94.1053 15.762 94.1057 15.2028V11.2846C94.1053 11.1061 93.8636 10.9503 93.518 10.9057V10.4479C93.7601 10.378 93.9094 10.2489 93.9098 10.1091V6.58267H94.0698C94.1257 6.70375 94.229 6.77839 94.3408 6.77859H94.9677C95.1409 6.77855 95.2812 6.60317 95.2812 6.38676V4.42763C95.2811 4.31514 95.2422 4.20817 95.1746 4.13392C95.2423 4.05959 95.2811 3.9525 95.2812 3.83989V3.44807C95.2812 3.23166 95.1409 3.05628 94.9677 3.05624H94.3408C94.1677 3.05628 94.0274 3.23166 94.0274 3.44807V3.83989C94.0275 3.95239 94.0664 4.05936 94.134 4.13361C94.1085 4.16174 94.0868 4.19489 94.0698 4.23172H93.9098V3.44807C93.9093 1.86309 93.4652 0.528495 92.8751 0.338655C92.5166 0.14478 90.2821 0.000235096 87.6406 0ZM82.2664 2.27259H82.8864H84.2372H91.0433H92.3947H93.0141C93.2012 2.27263 93.3623 2.40495 93.3985 2.58856C93.4773 2.98783 93.5175 3.41907 93.518 3.85647V3.85694V6.58267C93.518 6.79908 93.3426 6.97446 93.1262 6.9745H92.0291H83.2522H82.155C81.9386 6.97446 81.7633 6.79908 81.7632 6.58267V3.85698V3.85666C81.7635 3.41939 81.8034 2.98818 81.882 2.58883C81.9181 2.40507 82.0792 2.27259 82.2664 2.27259ZM82.7427 10.8928H83.5823C83.6864 10.8927 83.7723 10.9741 83.778 11.078L83.9179 13.6248C83.9241 13.7371 83.8347 13.8315 83.7223 13.8315H82.7427C82.6346 13.8315 82.5468 13.7437 82.5468 13.6355V11.0887C82.5469 10.9805 82.6346 10.8928 82.7427 10.8928ZM91.6988 10.8928H92.5384C92.6466 10.8928 92.7343 10.9805 92.7343 11.0887V13.6355C92.7343 13.7437 92.6466 13.8315 92.5384 13.8315H91.5588C91.4464 13.8315 91.3571 13.7371 91.3632 13.6248L91.5031 11.078C91.5088 10.9741 91.5948 10.8928 91.6988 10.8928ZM84.408 11.363H90.8731C90.9272 11.363 90.9711 11.4068 90.9711 11.4609V11.5785C90.9711 11.6326 90.9272 11.6764 90.8731 11.6764H84.408C84.3539 11.6764 84.31 11.6326 84.31 11.5785V11.4609C84.3101 11.4068 84.3539 11.363 84.408 11.363ZM84.4472 12.0682H90.8339C90.8881 12.0682 90.9319 12.1121 90.9319 12.1662V12.2837C90.9319 12.3379 90.8881 12.3817 90.8339 12.3817H84.4472C84.3931 12.3817 84.3492 12.3379 84.3492 12.2837V12.1662C84.3493 12.1121 84.3931 12.0682 84.4472 12.0682ZM84.4864 12.7735H90.7948C90.8489 12.7735 90.8927 12.8174 90.8927 12.8715V12.989C90.8927 13.0431 90.8489 13.087 90.7948 13.087H84.4864C84.4323 13.087 84.3884 13.0431 84.3884 12.989V12.8715C84.3884 12.8174 84.4323 12.7735 84.4864 12.7735ZM84.5255 13.4788H90.7556C90.8097 13.4788 90.8535 13.5227 90.8535 13.5768V13.6943C90.8535 13.7484 90.8097 13.7923 90.7556 13.7923H84.5255C84.4714 13.7923 84.4276 13.7484 84.4276 13.6943V13.5768C84.4276 13.5227 84.4715 13.4788 84.5255 13.4788Z" fill="#168074"/>
</svg>