<svg width="40" height="40" viewBox="0 0 40 40" fill="none" xmlns="http://www.w3.org/2000/svg">
<path d="M33.8889 40H6.11111C2.72222 40 0 37.2778 0 33.8889V6.11111C0 2.72222 2.72222 0 6.11111 0H33.8889C37.2778 0 40 2.72222 40 6.11111V33.8889C40 37.2778 37.2778 40 33.8889 40Z" fill="#0C5850"/>
<path d="M27.5001 13.2778H12.5001C11.2778 13.2778 10.2778 14.2778 10.2778 15.5V24.5556C10.2778 25.7778 11.2778 26.7778 12.5001 26.7778H27.5001C28.7223 26.7778 29.7223 25.7778 29.7223 24.5556V15.5C29.7223 14.2222 28.7223 13.2778 27.5001 13.2778ZM25.9445 22.5C26.7778 23.4444 27.6667 24.4444 28.4445 25.4444C27.4445 24.6111 26.4445 23.7778 25.5001 22.9444C24.6667 22.2222 23.8334 21.4444 23.0001 20.6667C22.8334 20.8333 22.6667 21.0556 22.5001 21.2222C22.3889 21.3333 22.2778 21.4444 22.1667 21.6111C22.0556 21.7222 22.0001 21.7778 21.8889 21.8889L20.3889 23.3889L20.0001 23.7778L19.6112 23.3889L18.1112 21.8889C18.0556 21.8333 18.0001 21.7778 17.9445 21.7222L17.5001 21.2222C17.3334 21.0556 17.1667 20.8333 17.0001 20.6667C16.1667 21.4444 15.3334 22.2222 14.5001 22.9444C13.5556 23.7778 12.5556 24.6667 11.5556 25.4444C12.3889 24.4444 13.2223 23.4444 14.0556 22.5C14.8334 21.6667 15.5556 20.8333 16.3334 20C16.0556 19.6667 15.7223 19.3889 15.4445 19.0556C14.1112 17.6111 12.7778 16.1111 11.5001 14.5C13.0556 15.7222 14.5556 17.0556 16.0556 18.4444C16.3889 18.7222 16.6667 19 17.0001 19.2778L17.1112 19.3889C17.5001 19.7222 17.8889 20.1111 18.2223 20.4444L18.7223 20.9444C18.7778 21 18.8334 21.0556 18.8889 21.1111L20.0001 22.2222L21.1112 21.1111C21.2223 21 21.2778 20.9444 21.3889 20.8333C21.5001 20.7222 21.6112 20.6111 21.7778 20.4444C22.0556 20.2222 22.2778 19.9444 22.5556 19.7222C22.6112 19.6667 22.6112 19.6667 22.6667 19.6111L23.0556 19.2778C23.3889 19 23.6667 18.7222 24.0001 18.4444C25.4445 17.1111 26.9445 15.7778 28.5556 14.5C27.3334 16.0556 26.0001 17.5556 24.6112 19.0556C24.3334 19.3889 24.0001 19.6667 23.7223 20C24.4445 20.8333 25.2223 21.6667 25.9445 22.5Z" fill="white"/>
</svg>
