<svg width="43" height="38" viewBox="0 0 43 38" fill="none" xmlns="http://www.w3.org/2000/svg">
<rect width="43" height="38" fill="#FDFDFD"/>
<path d="M21.5 8.70831C15.7829 8.70831 11.1482 13.316 11.1482 19C11.1482 24.6839 15.7829 29.2916 21.5 29.2916C25.3373 29.2916 28.6841 27.2144 30.472 24.1307L26.8276 22.0465C25.7653 23.8783 23.7796 25.1144 21.5 25.1144C18.1034 25.1144 15.3498 22.3769 15.3498 19C15.3498 15.6231 18.1034 12.8855 21.5 12.8855C22.956 12.8855 24.2904 13.3919 25.3428 14.2335L22.6247 16.1557L31.8519 19.2148V9.62792L28.8469 11.7536C26.9714 9.87388 24.3736 8.70831 21.5 8.70831Z" fill="#168074"/>
</svg>
